<svg width="512" height="512" viewBox="0 0 512 512" fill="none" xmlns="http://www.w3.org/2000/svg">
<rect x="-0.00123596" width="512.002" height="512.002" rx="256.001" fill="white"/>
<path d="M247.96 468.557C260.479 452.066 285.755 413.792 286.709 392.626L317.456 395.158L317.124 429.414L323.534 437.533L325.762 442.464L317.588 446.033L297.246 452.396L283.528 463.178L277.66 468.408L270.773 472.379L261.686 472.839L253.859 472.28L247.96 468.557Z" fill="black"/>
<path d="M161.943 313.998C164.615 319.817 169.824 336.199 168.263 348.874C166.312 364.717 158.959 393.084 148.229 398.71C137.5 404.337 213.878 442.372 239.568 463.099C262.617 481.696 271.385 473.773 288.03 458.774C300.867 447.205 328.395 444.445 325.156 440.443C321.918 436.442 317.104 432.696 316.804 428.864C316.564 425.798 317.629 405.441 318.192 395.645" stroke="black" stroke-width="8.20845"/>
<path d="M331.472 113.292C331.764 110.529 332.603 102.57 330.227 93.6539L331.464 113.37L331.472 113.292Z" fill="black"/>
<path d="M175.479 301.768L177.693 307.694M377.574 255.632C381.26 268.747 368.407 318.58 362.541 342.176C359.609 353.974 364.772 375.776 355.875 382.722C329.614 403.224 305.544 395.438 278.584 390.767C257.763 387.159 217.467 382.918 201.231 360.653C184.995 338.388 183.067 325.063 177.693 307.694M327.378 112.096C345.653 123.032 381.076 181.194 374.736 191.93C377.789 194.128 381.121 193.921 385.892 195.41C390.711 196.913 394.308 163.636 393.451 154.395C392.595 145.154 390.796 122.158 366.893 100.493C347.771 83.1605 334.221 84.5671 329.836 87.4369L331.464 113.37C331.845 109.75 333.307 96.4467 326.385 84.1169C317.732 68.7047 293.88 61.2638 268.752 57.9118C243.624 54.5599 206.023 60.0296 186.69 64.4682C171.224 68.0191 152.631 85.7501 145.268 94.1718C136.302 105.334 115.009 128.999 110.241 139.331C104.13 152.573 99.5295 180.859 98.8103 190.356C98.091 199.853 103.141 250.785 104.936 261.814C106.73 272.843 128.343 316.228 138.271 327.552C146.214 336.61 160.637 343.752 166.856 346.191M177.693 307.694C176.561 312.575 170.275 319.887 154.19 310.083C134.082 297.828 123.106 271.059 122.223 256.737C121.236 240.725 119.055 221.349 134.129 218.574C155.666 214.608 163.652 239.001 167.321 253.606C170.257 265.291 172.97 231.459 172.998 201.805" stroke="black" stroke-width="10.2606"/>
<path d="M173.096 202.295C170.707 180.676 189.687 126.248 213.501 124.703C243.269 122.772 279.383 122.073 296.714 119.253C314.046 116.434 330.183 110.25 327.288 112.339" stroke="black" stroke-width="10.2606" stroke-linecap="round"/>
<path d="M137.345 218.568C134.883 218.918 133.405 219.095 133.24 219.045C132.794 218.909 134.572 218.588 137.345 218.568C154.652 216.112 220.574 205.159 220.574 205.159C226.757 204.185 227.826 203.982 231.608 203.366C236.335 202.598 264.014 197.772 276.45 198.66C288.885 199.548 303.548 201.253 309.113 206.606C311.414 208.819 326.744 207.619 328.064 205.788C328.898 204.629 335.598 198.416 337.391 197.48C344.465 193.784 361.408 192.974 372.774 194.31C381.426 195.326 381.421 195.507 387.728 196.731C394.07 197.961 396.327 197.917 397.482 199.026C400.78 202.19 399.727 208.609 398.851 211.418C398.213 213.462 397.222 209.413 396.889 215.292C396.556 221.17 396.677 227.94 394.218 240.634C392.313 250.471 389.541 255.627 371.789 259.81C354.037 263.994 350.63 262.932 343.51 256.971C336.391 251.01 331.145 236.662 330.125 230.361C329.233 224.857 327.944 222.95 325.223 222.101C321.553 220.956 315.044 221.169 314.194 223.895C313.344 226.621 306.668 248.469 301.945 255.969C297.221 263.47 287.253 267.09 274.861 268.459C262.469 269.828 248.892 267.837 241.303 260.982C233.715 254.127 229.657 222.779 229.657 219.21C229.657 216.446 224.705 215.984 220.797 216.446C216.787 216.92 177.492 222.23 155.959 225.733C152.21 219.664 142.831 218.528 137.345 218.568Z" fill="white"/>
<path d="M133.24 219.045C134.566 219.449 220.574 205.159 220.574 205.159C226.757 204.185 227.826 203.982 231.608 203.366C236.335 202.598 264.014 197.772 276.45 198.66C288.885 199.548 303.548 201.253 309.113 206.606C311.414 208.819 326.744 207.619 328.064 205.788C328.898 204.629 335.598 198.416 337.391 197.48C344.465 193.784 361.408 192.974 372.774 194.31C381.426 195.326 381.421 195.507 387.728 196.731C394.07 197.961 396.327 197.917 397.482 199.026C400.78 202.19 399.727 208.609 398.851 211.418C398.213 213.462 397.222 209.413 396.889 215.292C396.556 221.17 396.677 227.94 394.218 240.634C392.313 250.471 389.541 255.627 371.789 259.81C354.037 263.994 350.63 262.932 343.51 256.971C336.391 251.01 331.145 236.662 330.125 230.361C329.233 224.857 327.944 222.95 325.223 222.101C321.553 220.956 315.044 221.169 314.194 223.895C313.344 226.621 306.668 248.469 301.945 255.969C297.221 263.47 287.253 267.09 274.861 268.459C262.469 269.828 248.892 267.837 241.303 260.982C233.715 254.127 229.657 222.779 229.657 219.21C229.657 216.446 224.705 215.984 220.797 216.446C216.787 216.92 177.492 222.23 155.959 225.733C150.316 216.597 131.913 218.64 133.24 219.045Z" stroke="black" stroke-width="8.20845"/>
<path d="M142.728 259.693C149.556 264.339 155.239 270.784 160.696 277.537" stroke="black" stroke-width="8.20845" stroke-linecap="round"/>
<path d="M154.208 255.741C151.919 263.078 149.845 270.5 147.337 277.768C147.184 278.212 146.489 279.5 145.955 279.525" stroke="black" stroke-width="8.20845" stroke-linecap="round"/>
<path d="M249.844 253.948C243.687 246.253 240.096 229.836 240.609 214.445C240.951 213.761 242.38 211.384 244.713 210.854C256 208.289 272.458 207.472 280.625 208.289C292.938 209.52 291.082 209.586 299.094 211.367C302.686 212.165 305.251 216.805 303.712 222.654C301.147 232.402 298.068 245.74 291.399 252.409C284.43 259.377 255.831 261.432 249.844 253.948Z" stroke="black" stroke-width="5.13028"/>
<path d="M349.371 248.307C343.779 241.596 337.687 226.009 338.084 211.369C338.084 210.343 340.136 206.853 342.839 205.89C351.936 202.647 363.191 202.534 370.646 203.45C378.101 204.366 378.742 204.684 384.946 206.378C388.521 207.354 388.884 211.369 388.521 217.114C387.848 227.786 387.335 238.559 382.205 244.716C377.074 250.872 354.501 254.463 349.371 248.307Z" stroke="black" stroke-width="5.13028"/>
<path d="M256.251 230.73C256.251 234.263 254.489 237.128 252.314 237.128C250.14 237.128 248.377 234.263 248.377 230.73C248.377 227.196 250.14 224.332 252.314 224.332C254.489 224.332 256.251 227.196 256.251 230.73Z" fill="black"/>
<path d="M265.848 230.73C265.848 233.04 263.975 234.913 261.665 234.913C259.355 234.913 257.482 233.04 257.482 230.73C257.482 228.42 259.355 226.547 261.665 226.547C263.975 226.547 265.848 228.42 265.848 230.73Z" fill="black"/>
<path d="M276.675 230.73C276.675 233.04 274.527 234.913 271.877 234.913C269.227 234.913 267.079 233.04 267.079 230.73C267.079 228.42 269.227 226.547 271.877 226.547C274.527 226.547 276.675 228.42 276.675 230.73Z" fill="black"/>
<path d="M285.78 230.73C285.78 234.263 284.017 237.128 281.843 237.128C279.668 237.128 277.906 234.263 277.906 230.73C277.906 227.196 279.668 224.332 281.843 224.332C284.017 224.332 285.78 227.196 285.78 230.73Z" fill="black"/>
<path d="M295.377 230.73C295.377 233.04 293.504 234.913 291.194 234.913C288.883 234.913 287.01 233.04 287.01 230.73C287.01 228.42 288.883 226.547 291.194 226.547C293.504 226.547 295.377 228.42 295.377 230.73Z" fill="black"/>
<path d="M351.262 223.999C351.262 227.082 349.724 229.58 347.827 229.58C345.93 229.58 344.393 227.082 344.393 223.999C344.393 220.917 345.93 218.418 347.827 218.418C349.724 218.418 351.262 220.917 351.262 223.999Z" fill="black"/>
<path d="M359.633 223.999C359.633 226.015 358 227.648 355.984 227.648C353.969 227.648 352.335 226.015 352.335 223.999C352.335 221.984 353.969 220.35 355.984 220.35C358 220.35 359.633 221.984 359.633 223.999Z" fill="black"/>
<path d="M369.079 223.999C369.079 226.015 367.204 227.648 364.893 227.648C362.581 227.648 360.707 226.015 360.707 223.999C360.707 221.984 362.581 220.35 364.893 220.35C367.204 220.35 369.079 221.984 369.079 223.999Z" fill="black"/>
<path d="M377.021 223.999C377.021 227.082 375.483 229.58 373.586 229.58C371.69 229.58 370.152 227.082 370.152 223.999C370.152 220.917 371.69 218.418 373.586 218.418C375.483 218.418 377.021 220.917 377.021 223.999Z" fill="black"/>
<path d="M385.393 223.999C385.393 226.015 383.759 227.648 381.743 227.648C379.728 227.648 378.094 226.015 378.094 223.999C378.094 221.984 379.728 220.35 381.743 220.35C383.759 220.35 385.393 221.984 385.393 223.999Z" fill="black"/>
</svg>
