<svg xmlns="http://www.w3.org/2000/svg" width="512" height="512" fill="none"><circle cx="256" cy="256" r="256" fill="#fff"/><path fill="#000" d="M117.3 256.82c0 31.12-15.53 56.34-34.68 56.34s-34.67-25.22-34.67-56.34c0-31.12 15.52-56.35 34.67-56.35 19.15 0 34.68 25.23 34.68 56.35ZM201.82 256.82a36.84 36.84 0 1 1-73.69 0 36.84 36.84 0 0 1 73.69 0ZM297.18 256.82c0 20.34-18.92 36.84-42.26 36.84-23.34 0-42.26-16.5-42.26-36.84 0-20.35 18.92-36.85 42.26-36.85 23.34 0 42.26 16.5 42.26 36.85ZM377.37 256.82c0 31.12-15.53 56.34-34.68 56.34S308 287.94 308 256.82c0-31.12 15.53-56.35 34.68-56.35s34.68 25.23 34.68 56.35ZM461.89 256.82a36.84 36.84 0 1 1-73.69 0 36.84 36.84 0 0 1 73.69 0Z"/></svg>