<?xml version="1.0" standalone="no"?>
<!DOCTYPE svg PUBLIC "-//W3C//DTD SVG 20010904//EN"
 "http://www.w3.org/TR/2001/REC-SVG-20010904/DTD/svg10.dtd">
<svg version="1.0" xmlns="http://www.w3.org/2000/svg"
 width="442.000000pt" height="442.000000pt" viewBox="0 0 442.000000 442.000000"
 preserveAspectRatio="xMidYMid meet">
<metadata>
Created by potrace 1.14, written by Peter Selinger 2001-2017
</metadata>
<g transform="translate(0.000000,442.000000) scale(0.100000,-0.100000)"
fill="#000000" stroke="none">
<path d="M2125 4115 c-237 -38 -281 -47 -348 -75 -101 -42 -262 -160 -355
-259 -72 -76 -179 -226 -187 -260 -3 -17 -10 -31 -13 -31 -8 0 -32 -49 -32
-64 0 -5 -7 -17 -16 -27 -9 -10 -18 -37 -20 -61 -2 -24 -14 -56 -26 -72 -12
-17 -23 -41 -24 -55 -4 -44 -23 -141 -29 -151 -8 -14 -16 -108 -17 -220 -1
-162 54 -507 86 -535 7 -5 27 -37 45 -70 19 -33 40 -67 47 -75 52 -56 137
-187 154 -234 20 -61 48 -105 89 -146 14 -14 35 -45 46 -68 11 -23 25 -42 31
-42 7 0 20 -12 29 -27 25 -39 64 -77 71 -70 4 3 1 26 -5 51 -17 68 -13 76 12
26 13 -25 22 -58 21 -75 -1 -16 -2 -30 -3 -30 -1 0 -4 -15 -6 -34 -2 -22 0
-29 6 -20 7 11 9 9 9 -8 0 -12 5 -25 10 -28 6 -4 8 -15 5 -26 -4 -11 -2 -19 4
-19 6 0 11 -5 11 -11 0 -5 -5 -7 -10 -4 -7 4 -9 -2 -4 -19 4 -17 2 -26 -6 -26
-7 0 -5 -6 5 -16 11 -11 14 -25 10 -44 -4 -17 -1 -31 8 -38 10 -9 12 -24 7
-57 -4 -25 -3 -45 2 -45 4 0 8 -10 8 -21 0 -17 -3 -19 -14 -10 -18 15 -34 -5
-17 -22 6 -6 11 -19 11 -29 0 -19 42 -47 47 -31 2 6 16 8 31 5 15 -3 24 -1 20
3 -4 5 -3 14 3 22 9 10 8 13 0 13 -7 0 -9 5 -6 10 3 6 18 7 33 4 19 -4 23 -3
13 4 -8 6 -9 12 -3 16 6 3 13 2 17 -4 4 -7 12 -7 25 0 22 12 71 3 82 -14 5 -8
11 -7 20 2 17 17 41 15 34 -3 -3 -8 -1 -15 5 -15 6 0 27 -8 46 -17 30 -14 39
-14 56 -3 12 7 33 16 47 21 16 4 19 8 8 8 -23 1 -23 10 -1 27 12 8 22 9 29 3
8 -6 17 -4 28 7 16 15 16 17 0 29 -13 9 -14 14 -4 20 9 6 11 4 5 -5 -6 -10 1
-11 31 -6 30 5 35 4 21 -4 -9 -6 -15 -16 -11 -21 4 -6 15 -4 30 6 19 12 35 14
81 6 32 -5 67 -7 78 -5 11 2 45 6 75 9 30 2 70 9 89 14 19 6 37 8 41 6 4 -3
13 2 20 10 6 8 40 30 75 49 64 35 143 110 158 149 4 12 12 24 18 27 5 4 18 31
28 60 11 30 24 56 30 58 6 2 9 7 6 12 -3 4 4 37 14 72 11 34 22 79 26 98 l6
35 -28 -33 c-25 -29 -53 -46 -39 -24 5 9 -24 96 -37 108 -15 16 -6 56 18 79
29 26 49 114 35 151 -5 11 -30 40 -56 62 l-47 42 -26 -28 c-15 -17 -34 -28
-46 -26 -32 4 -49 9 -62 17 -6 4 -39 10 -74 14 -50 5 -61 4 -54 -7 5 -8 4 -11
-2 -7 -16 10 -96 -29 -111 -53 -19 -32 -44 -8 -37 34 17 90 13 104 -38 157
-16 16 -27 34 -25 41 6 16 41 19 50 5 8 -14 4 99 -8 188 -4 33 -7 70 -7 83 1
32 31 74 50 70 29 -6 72 -72 103 -157 35 -98 40 -105 94 -134 36 -19 56 -22
156 -21 171 2 310 44 310 94 0 10 6 22 13 28 10 9 12 0 10 -38 -1 -27 -5 -55
-9 -62 -6 -9 -3 -9 9 1 9 7 17 22 17 33 0 26 23 68 54 97 14 13 32 47 40 75
19 70 28 282 15 391 -5 50 -12 115 -15 145 -8 94 -77 253 -172 395 -92 139
-100 149 -131 182 -17 17 -31 36 -31 41 0 6 -15 21 -32 33 -18 13 -37 29 -41
36 -4 7 -14 13 -22 13 -7 0 -16 13 -20 28 -8 37 -95 142 -117 142 -26 0 -22
-9 7 -20 22 -8 85 -91 85 -112 0 -4 -31 24 -70 63 -38 38 -70 73 -70 78 0 4
-11 13 -25 19 -14 6 -25 18 -25 26 0 7 -13 19 -29 26 -16 6 -37 20 -46 30 -10
11 -31 22 -49 26 -17 3 -51 15 -76 27 -58 26 -209 32 -335 12z m248 -16 c32
-5 76 -19 100 -30 23 -11 31 -18 17 -14 -14 3 -52 10 -85 15 -81 12 -179 31
-184 36 -9 8 97 4 152 -7z m460 -542 c-3 -5 3 -7 13 -5 43 8 67 -31 183 -285
42 -93 69 -214 71 -322 3 -110 3 -110 -14 -96 -20 17 -123 50 -131 43 -4 -4
-19 -8 -33 -8 -71 -4 -149 -18 -167 -29 -11 -6 -38 -15 -60 -19 -22 -4 -46
-12 -52 -18 -7 -6 -13 -8 -13 -4 0 4 -18 -3 -40 -14 -21 -11 -47 -20 -55 -20
-9 0 -15 -6 -12 -12 2 -8 22 -13 48 -14 74 -1 84 -3 72 -15 -6 -6 -45 -13 -88
-16 -63 -5 -77 -4 -70 7 5 9 4 11 -3 6 -6 -4 -28 4 -49 18 -21 14 -67 30 -102
36 -36 6 -83 21 -104 32 -22 11 -49 21 -61 24 -86 15 -136 20 -136 14 0 -4
-17 -5 -37 -3 -21 3 -58 4 -83 4 l-45 0 0 45 c0 32 3 43 12 40 9 -4 13 6 13
34 0 29 -5 42 -20 50 -13 7 -20 21 -20 39 0 16 -7 34 -15 41 -8 7 -13 16 -10
20 3 5 2 11 -3 14 -4 2 -6 23 -4 45 3 34 8 42 30 48 37 9 72 43 72 70 0 14 6
23 15 23 8 0 15 6 15 14 0 19 63 73 108 92 20 8 87 19 147 24 61 6 126 12 145
15 19 3 63 7 98 10 34 2 75 11 91 19 15 8 55 19 88 25 32 5 74 16 93 24 36 16
122 19 113 4z m277 -768 c0 -18 -9 -19 -127 -19 -69 0 -124 2 -121 5 6 7 102
25 162 30 27 3 51 7 54 9 9 10 32 -8 32 -25z m8 -46 c-25 -4 -28 -8 -28 -46 0
-43 34 -197 49 -224 6 -12 12 -9 31 16 12 18 21 33 19 35 -2 2 -13 9 -24 15
-15 9 -16 11 -2 7 11 -4 17 0 18 12 0 12 2 13 6 3 5 -11 7 -11 15 0 14 21 -2
-79 -21 -130 -20 -56 -51 -78 -126 -92 -86 -17 -262 -17 -309 0 -33 11 -42 22
-67 76 -17 38 -26 71 -23 86 4 17 3 20 -4 11 -7 -10 -10 -6 -10 15 -1 15 -4
49 -8 74 -11 83 22 113 143 133 43 8 143 13 223 13 80 0 133 -2 118 -4z m77
-23 c26 -28 15 -31 -12 -3 -12 13 -19 23 -14 23 4 0 16 -9 26 -20z m-1125 -25
c-87 -12 -124 -12 -89 -1 8 2 21 7 29 9 8 3 47 5 85 5 l70 0 -95 -13z m1147
-72 c-3 -10 -5 -2 -5 17 0 19 2 27 5 18 2 -10 2 -26 0 -35z m-1057 6 c9 -16 8
-25 -6 -40 -23 -26 -37 -24 -28 4 4 12 8 30 8 40 0 23 13 22 26 -4z m-10 -98
c0 -11 -13 -25 -34 -35 -37 -18 -132 -21 -156 -6 -12 8 -9 10 13 10 15 0 30 6
33 13 3 8 26 13 61 15 31 1 61 6 67 12 14 14 16 13 16 -9z m-194 -70 c-8 -12
18 -21 59 -21 19 0 36 -4 39 -9 3 -5 16 -7 29 -3 20 5 21 4 7 -12 -13 -16 -12
-18 5 -15 41 6 105 -31 105 -61 0 -5 6 -10 13 -11 9 0 9 -2 -1 -6 -6 -2 -10
-8 -7 -13 12 -20 -194 -23 -300 -4 -22 4 -65 48 -65 67 0 7 7 3 15 -7 14 -19
15 -19 35 -1 20 18 28 41 11 30 -12 -7 -43 24 -38 39 2 6 19 16 38 23 41 14
62 16 55 4z m352 -38 c-4 -22 -22 -20 -26 1 -2 10 3 16 13 16 10 0 15 -7 13
-17z m-105 -185 c8 -22 -20 -61 -90 -128 -164 -157 -161 -154 -178 -140 -9 7
-14 20 -13 29 4 17 -32 51 -52 51 -10 0 -10 3 0 15 7 8 9 15 4 15 -5 0 -1 7 9
14 15 12 16 18 7 35 -7 14 -7 27 -1 39 5 9 8 22 8 27 -1 6 14 13 33 17 19 5
64 14 100 22 84 18 167 20 173 4z m-802 -100 c11 -21 11 -22 -4 -9 -10 7 -17
17 -17 22 0 15 9 10 21 -13z m1038 6 c2 -2 -18 -4 -45 -3 -36 0 -44 3 -29 9
18 7 63 3 74 -6z m-629 -188 c0 -9 -7 -16 -15 -16 -10 0 -15 10 -15 31 0 27 2
29 15 15 8 -8 15 -22 15 -30z m923 10 c11 11 139 16 133 6 -3 -6 -22 -13 -41
-16 -30 -6 -35 -11 -36 -34 0 -17 -10 -35 -28 -49 -25 -20 -30 -21 -41 -8 -10
12 -17 9 -45 -21 -19 -20 -39 -33 -45 -29 -6 4 -18 1 -26 -6 -12 -10 -19 -8
-39 11 -21 20 -25 21 -25 7 0 -13 -9 -17 -40 -17 -33 0 -42 4 -49 22 -5 14
-10 17 -15 10 -10 -17 -44 -15 -54 4 -5 9 -7 27 -4 40 5 28 36 32 51 7 7 -14
13 -15 22 -6 13 13 3 36 -12 27 -6 -3 -5 4 3 15 18 30 44 34 153 29 77 -4 95
-2 100 10 4 11 9 11 19 3 7 -6 16 -8 19 -5z m181 -44 c19 -31 22 -212 3 -224
-6 -4 -8 -8 -4 -8 19 0 -14 -35 -34 -35 -16 0 -23 -7 -26 -24 -2 -14 -9 -31
-15 -38 -9 -11 -8 -17 3 -24 14 -9 10 -11 -26 -13 -17 -1 -20 -7 -18 -38 1
-21 -3 -38 -7 -38 -5 0 -7 -6 -4 -13 3 -8 -2 -14 -10 -14 -9 0 -12 6 -8 16 5
14 4 14 -11 2 -10 -8 -15 -21 -12 -31 3 -10 -5 -26 -21 -41 l-26 -24 -18 23
c-10 12 -25 22 -34 22 -10 0 -16 9 -16 25 0 28 3 29 30 15 16 -8 18 -8 14 5
-4 8 -12 15 -18 15 -17 0 -6 72 12 78 6 2 12 -1 12 -7 0 -6 5 -11 11 -11 14 0
1 40 -22 66 -11 11 -19 28 -19 37 0 27 -38 46 -72 36 -19 -5 -38 -5 -49 1 -10
6 -20 6 -23 1 -4 -5 -24 -1 -46 10 -21 10 -44 19 -49 19 -6 0 -8 7 -5 15 4 8
1 15 -5 15 -6 0 -11 8 -11 18 0 14 2 15 10 2 7 -11 14 -12 32 -3 55 27 114 38
122 24 17 -26 200 46 297 118 45 33 55 36 63 23z m-960 -48 c3 -8 2 -12 -4 -9
-6 3 -10 10 -10 16 0 14 7 11 14 -7z m384 -3 c3 -8 -1 -12 -9 -9 -7 2 -15 10
-17 17 -3 8 1 12 9 9 7 -2 15 -10 17 -17z m325 -291 c-3 -11 -9 -20 -14 -20
-11 0 -11 3 -3 24 9 23 23 20 17 -4z m-33 -90 c0 -5 -5 -10 -11 -10 -5 0 -7 5
-4 10 3 6 8 10 11 10 2 0 4 -4 4 -10z m-92 -41 c-3 -8 -7 -3 -11 10 -4 17 -3
21 5 13 5 -5 8 -16 6 -23z m72 -20 c0 -27 -17 -32 -24 -6 -11 40 -8 51 9 37 8
-7 15 -21 15 -31z"/>
<path d="M1920 3245 c-11 -13 -10 -14 4 -9 9 3 16 10 16 15 0 13 -6 11 -20 -6z"/>
<path d="M2505 2740 c-3 -5 1 -10 9 -10 9 0 16 5 16 10 0 6 -4 10 -9 10 -6 0
-13 -4 -16 -10z"/>
<path d="M2745 2708 c-36 -13 -95 -66 -95 -87 0 -11 5 -10 21 5 22 19 22 19
10 -4 -14 -26 -7 -42 18 -42 9 0 26 -6 36 -14 19 -13 59 -10 50 4 -3 4 1 8 8
7 55 -2 79 4 73 18 -3 8 -9 23 -12 33 -5 15 -4 15 10 -2 14 -18 15 -18 21 6 3
13 5 31 3 38 -5 23 36 23 57 0 22 -25 13 -47 -26 -67 -24 -13 -24 -13 -2 -13
12 0 34 12 48 27 14 15 25 22 25 15 0 -6 7 -12 15 -12 23 0 18 13 -20 50 -24
23 -48 35 -82 41 -65 11 -122 10 -158 -3z"/>
<path d="M2655 2130 c-8 -13 5 -13 25 0 13 8 13 10 -2 10 -9 0 -20 -4 -23 -10z"/>
<path d="M3082 1825 c-7 -14 -12 -36 -12 -48 1 -21 1 -21 12 -2 10 16 20 75
13 75 -1 0 -7 -11 -13 -25z"/>
<path d="M1650 1310 c0 -19 3 -21 12 -12 9 9 9 15 0 24 -9 9 -12 7 -12 -12z"/>
<path d="M1667 1146 c21 -28 28 -26 18 3 -3 12 -13 21 -21 21 -12 0 -12 -4 3
-24z"/>
<path d="M2340 1130 c0 -5 4 -10 9 -10 6 0 13 5 16 10 3 6 -1 10 -9 10 -9 0
-16 -4 -16 -10z"/>
<path d="M1411 1081 c-14 -25 -76 -61 -107 -61 -29 0 -145 -73 -188 -119 -16
-17 -54 -45 -83 -63 -30 -18 -123 -82 -206 -141 -196 -139 -259 -181 -385
-253 -246 -140 -313 -187 -392 -270 -49 -51 -50 -54 -50 -113 l0 -61 1740 0
c957 0 1740 4 1740 8 0 4 -30 84 -66 177 -62 161 -123 276 -182 347 -31 37
-272 217 -329 246 -21 11 -49 32 -62 46 -33 35 -41 33 -41 -11 0 -41 34 -105
95 -181 63 -79 37 -142 -70 -171 -165 -44 -796 208 -1024 408 -13 12 -28 21
-34 21 -5 0 -6 7 -3 16 5 12 2 15 -10 10 -12 -5 -48 17 -113 67 -95 73 -172
117 -204 117 -9 0 -21 -8 -26 -19z"/>
<path d="M1756 1020 c-16 -5 -17 -8 -6 -15 8 -5 15 -4 18 3 2 6 10 8 18 5 8
-3 14 -3 14 0 0 10 -25 14 -44 7z"/>
<path d="M2012 998 c3 -7 13 -15 22 -16 12 -3 17 1 14 10 -3 7 -13 15 -22 16
-12 3 -17 -1 -14 -10z"/>
</g>
</svg>
