<svg xmlns="http://www.w3.org/2000/svg" width="319.195" height="318" viewBox="0 0 319.195 318"><g transform="translate(-1122.909 -610)"><path d="M159,0A159,159,0,1,1,0,159,159,159,0,0,1,159,0Z" transform="translate(1123 610)" fill="#f5f5f5"/><g transform="translate(-11.469 4.444)"><g transform="translate(1134.469 728.771)"><path d="M1134.469,760.743s20.078-3.7,37.96-30.9c.268-.408-.508.231,0-.353,57.888,74.846,106.5,73.241,117.61,74.88,68.859,3.174,119.731-68,124.9-74.808.006-.012-.057.05,0,0,.292-.259-1.029-1.729,0,0,3.421,5.744,14.745,25.6,38.521,30.99" transform="translate(-1134.469 -726.666)" fill="none" stroke="#000eff" stroke-width="1"/><path d="M1165.435,815.906V781.211h2.057V745.557H1169v-18.65h2.194v18.65h1.646v35.655h2.469v34.695Z" transform="translate(-1131.95 -726.907)" fill="#fff" stroke="#000eff" stroke-width="1"/><path d="M1165.435,815.906V781.211h2.057V745.557H1169v-18.65h2.194v18.65h1.646v35.655h2.469v34.695Z" transform="translate(-889.726 -726.907)" fill="#fff" stroke="#000eff" stroke-width="1"/><g transform="translate(2.737 88.772)" fill="#fff" stroke="#000eff" stroke-width="1"><rect width="313.594" height="7.57" stroke="none"/><rect x="0.5" y="0.5" width="312.594" height="6.57" fill="none"/></g><g transform="translate(155.208 68.226)" fill="#fff" stroke="#000eff" stroke-width="1"><rect width="3.244" height="20.546" stroke="none"/><rect x="0.5" y="0.5" width="2.244" height="19.546" fill="none"/></g></g><g transform="translate(1255.074 704)"><g transform="translate(0 16.22)"><g transform="translate(5.407)" fill="#fff" stroke="#fff" stroke-width="1"><rect width="31.784" height="7.57" stroke="none"/><rect x="0.5" y="0.5" width="30.784" height="6.57" fill="none"/></g><g transform="translate(0 4.325)" fill="#fff" stroke="#fff" stroke-width="1"><rect width="31.784" height="7.57" stroke="none"/><rect x="0.5" y="0.5" width="30.784" height="6.57" fill="none"/></g></g><g transform="translate(78.939 44.336)"><g transform="translate(5.407)" fill="#fff" stroke="#fff" stroke-width="1"><rect width="32.441" height="7.57" stroke="none"/><rect x="0.5" y="0.5" width="31.441" height="6.57" fill="none"/></g><g transform="translate(0 4.325)" fill="#fff" stroke="#fff" stroke-width="1"><rect width="32.441" height="7.57" stroke="none"/><rect x="0.5" y="0.5" width="31.441" height="6.57" fill="none"/></g></g><g transform="translate(138.414)"><g transform="translate(5.407)" fill="#fff" stroke="#fff" stroke-width="1"><rect width="32.441" height="8.651" stroke="none"/><rect x="0.5" y="0.5" width="31.441" height="7.651" fill="none"/></g><g transform="translate(0 5.407)" fill="#fff" stroke="#fff" stroke-width="1"><rect width="32.441" height="8.651" stroke="none"/><rect x="0.5" y="0.5" width="31.441" height="7.651" fill="none"/></g></g></g><g transform="translate(1193.436 712.651)" fill="#fff"><path d="M 16.76103782653809 32.02207946777344 C 12.68466758728027 32.02207946777344 8.852277755737305 30.43464851379395 5.969847679138184 27.55221748352051 C 3.087417840957642 24.6697883605957 1.499997854232788 20.8374080657959 1.499997854232788 16.76103782653809 C 1.499997854232788 12.68466758728027 3.087417840957642 8.852277755737305 5.969847679138184 5.969847679138184 C 8.852277755737305 3.087417840957642 12.68466758728027 1.499997854232788 16.76103782653809 1.499997854232788 C 20.8374080657959 1.499997854232788 24.6697883605957 3.087417840957642 27.55221748352051 5.969847679138184 C 30.43464851379395 8.852277755737305 32.02207946777344 12.68466758728027 32.02207946777344 16.76103782653809 C 32.02207946777344 20.8374080657959 30.43464851379395 24.6697883605957 27.55221748352051 27.55221748352051 C 24.6697883605957 30.43464851379395 20.8374080657959 32.02207946777344 16.76103782653809 32.02207946777344 Z" stroke="none"/><path d="M 16.76103782653809 2.999998092651367 C 13.0853385925293 2.999998092651367 9.629638671875 4.431398391723633 7.030517578125 7.030517578125 C 4.431398391723633 9.629638671875 2.999998092651367 13.0853385925293 2.999998092651367 16.76103782653809 C 2.999998092651367 20.43673706054688 4.431398391723633 23.89243698120117 7.030517578125 26.49155807495117 C 9.629638671875 29.09067726135254 13.0853385925293 30.5220775604248 16.76103782653809 30.5220775604248 C 20.43673706054688 30.5220775604248 23.89243698120117 29.09067726135254 26.49155807495117 26.49155807495117 C 29.09067726135254 23.89243698120117 30.5220775604248 20.43673706054688 30.5220775604248 16.76103782653809 C 30.5220775604248 13.0853385925293 29.09067726135254 9.629638671875 26.49155807495117 7.030517578125 C 23.89243698120117 4.431398391723633 20.43673706054688 2.999998092651367 16.76103782653809 2.999998092651367 M 16.76103782653809 -3.814697265625e-06 C 26.01789855957031 -3.814697265625e-06 33.52207946777344 7.504177093505859 33.52207946777344 16.76103782653809 C 33.52207946777344 26.01789855957031 26.01789855957031 33.52207946777344 16.76103782653809 33.52207946777344 C 7.504177093505859 33.52207946777344 -3.814697265625e-06 26.01789855957031 -3.814697265625e-06 16.76103782653809 C -3.814697265625e-06 7.504177093505859 7.504177093505859 -3.814697265625e-06 16.76103782653809 -3.814697265625e-06 Z" stroke="none" fill="#ebebeb"/></g><rect width="32" height="5" transform="translate(1333.469 755.556)" fill="#e5e5e5"/><rect width="31" height="5" transform="translate(1255.469 727.556)" fill="#e5e5e5"/><rect width="32" height="6" transform="translate(1394.469 712.556)" fill="#e5e5e5"/></g></g></svg>