<svg xmlns="http://www.w3.org/2000/svg" width="1197" height="1197" fill="none"><g clip-path="url(#a)"><path fill="#000" d="M266 0h133v133H266zM133 133h133v133H133zM0 266h133v133H0zM0 399h133v133H0zM0 532h133v133H0zM133 665h133v133H133zM266 798h133v133H266zM399 931h133v133H399zM530 1064h133v133H530zM665 931h133v133H665zM798 798h133v133H798zM931 665h133v133H931zM1064 532h133v133h-133zM1064 399h133v133h-133zM1064 266h133v133h-133zM931 133h133v133H931zM798 0h133v133H798zM665 0h133v133H665zM532 133h133v133H532zM399 0h133v133H399z"/><path fill="#fff" d="M266 266h133v133H266V266ZM133 399h133v133H133V399ZM266 133h133v133H266V133Z"/><path fill="#fff" d="M264 399h133v133H264V399ZM399 266h133v133H399V266ZM133 266h133v133H133V266ZM399 133h133v133H399V133ZM532 266h133v133H532V266ZM665 133h133v133H665V133ZM665 266h133v133H665V266ZM665 399h133v133H665V399ZM532 399h133v133H532V399ZM399 399h133v133H399V399ZM399 532h133v133H399V532ZM532 532h133v133H532V532ZM665 532h133v133H665V532ZM532 665h133v133H532V665ZM399 665h133v133H399V665ZM266 665h133v133H266V665ZM266 532h133v133H266V532ZM133 532h133v133H133V532ZM399 798h133v133H399V798ZM532 798h133v133H532V798ZM665 665h133v133H665V665ZM798 532h133v133H798V532ZM798 399h133v133H798V399ZM798 266h133v133H798V266ZM798 133h133v133H798V133ZM931 266h133v133H931V266ZM931 399h133v133H931V399ZM931 532h133v133H931V532Z"/><path fill="#fff" d="M797 665h133v133H797V665ZM665 798h133v133H665V798ZM532 931h133v133H532V931ZM266 266h133v133H266zM133 399h133v133H133z"/><path fill="#FFB3B3" d="M266 133h133v133H266zM264 399h133v133H264zM399 266h133v133H399zM133 266h133v133H133z"/><path fill="#FF5151" d="M399 133h133v133H399zM532 266h133v133H532zM665 133h133v133H665zM665 266h133v133H665zM665 399h133v133H665zM532 399h133v133H532zM399 399h133v133H399zM399 532h133v133H399zM532 532h133v133H532zM665 532h133v133H665zM532 665h133v133H532zM399 665h133v133H399zM266 665h133v133H266zM266 532h133v133H266zM133 532h133v133H133zM399 798h133v133H399z"/><path fill="#DC4444" d="M532 798h133v133H532zM665 665h133v133H665zM798 532h133v133H798zM798 399h133v133H798zM798 266h133v133H798z"/><path fill="#BA3333" d="M798 133h133v133H798zM931 266h133v133H931zM931 399h133v133H931zM931 532h133v133H931zM797 665h133v133H797zM665 798h133v133H665zM532 931h133v133H532z"/></g><defs><clipPath id="a"><path fill="#fff" d="M0 0h1197v1197H0z"/></clipPath></defs></svg>