<svg xmlns="http://www.w3.org/2000/svg" fill="none" viewBox="0 0 1197 1197"><path fill="#FF8A00" d="M531 1064h265V798H531zm0-266h531V133H531z"/><path fill="#000" d="M133 133h133v133H133zm399 0h133v133H532zM133 665h133v133H133zm133 133h133v133H266zm133 133h133v133H399zm133 133h133v133H532zM0 266h133v399H0zM266 0h266v133H266zm798 133H931v133h133zm0 532H931v133h133zM931 798H798v133h133zM798 931H665v133h133z"/><path fill="#000" d="M665 1064H532v133h133z"/><path fill="#EDDD5D" fill-opacity=".6" d="M665 931H532v133h133zm133-133H665v133h133zm133-133H798v133h133zM399 133H266v133h133zM266 266H133v133h133zm798 266H931v133h133zm-1-133H930v133h133zm-1-133H929v133h133zM931 133H798v133h133z"/><path fill="#EDDD5D" d="M798 399H133v133h665zm0-133H399v133h399zm0-133H664v133h134zm0 399H133v133h665zM665 665H266v133h399zM532 798H399v133h133z"/><path fill="#EDDD5D" fill-opacity=".8" d="M664 798H531v133h133zm134-133H665v133h133zM532 133H399v133h133zm399 399H798v133h133zm0-133H798v133h133zm-2-133H796v133h133z"/><path fill="#000" d="M1197 266h-133v399h133zM931 0H665v133h266z"/><path fill="#fff" d="M399 266H266v133h133z"/><path fill="#fff" fill-opacity=".5" d="M532 266H399v133h133zM399 133H266v133h133zM264 266H131v133h133zm134 133H265v133h133z"/><path fill="#fff" d="M266 399H133v133h133z"/></svg>